<svg width="52" height="52" viewBox="0 0 52 52" fill="none" xmlns="http://www.w3.org/2000/svg">
<path fill-rule="evenodd" clip-rule="evenodd" d="M21.5364 27.9437C18.2963 29.5181 14.183 32.334 14.183 35.4266C14.183 36.5743 14.7572 37.296 15.8334 37.296C18.9973 37.296 20.942 32.2588 21.5364 27.9437ZM22.3874 14.4623C22.3874 14.111 22.1844 13.9639 21.8867 13.9639C20.3685 13.962 18.2235 17.9272 18.2235 20.297C20.5918 18.9997 22.3874 16.0563 22.3874 14.4623ZM35.1491 14.7595C35.1491 14.4082 35.0729 13.9639 34.6295 13.9639C33.556 13.962 31.8328 16.2777 31.8328 19.223C33.9812 17.3511 35.1491 15.7591 35.1491 14.7595ZM40.4623 32.9077C40.4623 36.1488 37.6641 39.5375 33.556 39.5375C28.5931 39.5375 26.0743 35.3536 26.0743 31.6103C26.0743 26.3522 29.6661 24.1286 31.183 23.3331C30.8886 23.1106 30.6668 22.8328 30.4616 22.4622C28.7219 23.6843 27.1477 24.778 23.8333 26.6475C23.6843 28.9453 23.4811 31.4633 22.8906 33.2048C21.6667 36.8714 19.1478 39.5375 15.8334 39.5375C13.0353 39.5375 11.6641 37.5188 11.6641 35.3536C11.6641 33.777 12.5938 31.7603 14.2592 30.2416C16.3516 28.3689 18.6503 27.2212 21.8157 25.5557C21.8867 25.1292 21.961 24.7041 22.0372 24.1846C21.2402 24.9073 20.0939 25.2025 19.1478 25.2025C17.6465 25.2025 16.4076 23.9076 16.1316 22.5366C14.1102 22.3894 12.5938 20.9444 12.5176 18.6485C12.5176 16.9991 13.166 15.5559 14.2592 15.5559C14.6857 15.5559 14.8314 15.9072 14.8314 16.2034C14.8314 16.4809 14.4623 17.4255 14.4623 18.3513C14.4623 19.2969 14.9076 20.518 16.0554 20.518C16.0554 16.7781 18.7943 11.9435 22.0372 11.9435C24.1855 11.9435 24.4798 13.5375 24.4798 14.2592C24.4798 17.6479 21.0925 21.3887 18.3503 22.3132C18.4265 22.6104 18.7213 23.4069 19.5898 23.4069C20.6661 23.4069 21.961 22.3894 22.6113 21.5919C22.8906 20.0934 23.9824 17.9272 25.4258 17.9272C26 17.9272 26.2775 18.3513 26.2775 18.8705C26.2775 19.9443 25.1297 21.3154 24.2598 22.2422C24.1296 22.9626 24.0566 23.7581 24.0566 24.4079C26.5737 22.8887 27.8719 22.1119 29.7409 20.7414C29.5937 20.2415 29.5937 19.649 29.5937 19.075C29.5937 15.7041 31.8328 11.9435 34.7767 11.9435C36.4441 11.9435 37.2936 13.111 37.2936 14.4082C37.2936 16.8519 35.2032 18.9997 32.2597 21.2416C32.483 21.8157 32.8334 22.3132 33.407 22.6104C33.4799 22.4622 34.4227 22.3132 35.2032 22.3132C36.0749 22.3132 37.2936 22.5366 37.2936 23.4069C37.2936 24.4079 35.9259 24.6289 34.851 24.6289C34.2755 24.7041 33.3327 24.4808 33.3327 24.4808C31.7585 24.9073 28.7219 26.7208 28.7219 31.316C28.7219 34.4269 30.6668 37.296 33.7032 37.296C35.9987 37.296 37.8706 35.5746 37.9435 32.9077C37.9468 31.1863 37.2208 29.3694 35.4994 29.3694C34.6295 29.3694 33.8509 30.0183 33.8509 30.9629C33.778 32.4078 34.851 32.5574 34.851 33.4817C34.851 34.1302 34.3517 34.4269 33.8509 34.4269C32.4083 34.4269 31.3151 32.9815 31.3151 31.1863C31.3151 29.0186 33.2039 27.2212 35.6466 27.2212C38.8138 27.2212 40.4623 29.9633 40.4623 32.9077ZM49.1849 26C49.1849 17.7776 45.0007 9.27743 35.9987 6.55597C34.1283 5.98181 32.556 5.61131 30.741 5.61131C26.5737 5.61131 26.4265 7.98212 24.4798 7.98212C23.4069 7.98212 22.6837 7.20477 22.6837 6.26022C22.6837 4.61079 24.6289 3.31488 27.7214 3.31488C30.6108 3.31488 32.8334 4.03855 33.2585 4.24161L33.3327 4.03855C32.556 3.74183 29.8138 2.79717 26 2.79717C17.7024 2.79717 9.27743 7.05575 6.55597 15.9824C5.98048 17.852 5.6095 19.446 5.6095 21.2416C5.6095 25.4258 7.98116 25.629 7.98116 27.5742C7.98116 28.5922 7.20393 29.3149 6.25781 29.3149C4.61079 29.3149 3.3144 27.4261 3.3144 24.2598C3.3144 21.3887 4.0371 19.1488 4.16734 18.7223L3.96428 18.6485C3.74087 19.5178 2.7962 22.1862 2.7962 26C2.7962 34.3526 7.05527 42.7781 15.9806 45.5178C17.8529 46.0934 19.4422 46.4447 21.2402 46.4447C25.4258 46.4447 25.5548 43.9991 27.5014 43.9991C28.5189 43.9991 29.3144 44.7956 29.3144 45.7962C29.3144 47.3887 27.4252 48.6856 24.2598 48.6856C21.3887 48.6856 19.0716 47.9643 18.7213 47.8157L18.6503 48.0362C19.4422 48.3884 22.1844 49.1859 26 49.1859C34.2755 49.1859 42.7761 44.9997 45.444 36.0011C46.0177 34.2035 46.3699 32.5574 46.3699 30.8158C46.3699 26.5737 44.0001 26.4265 44.0001 24.4808C44.0001 23.4069 44.7213 22.6837 45.7233 22.6837C47.3887 22.6837 48.6837 24.6289 48.6837 27.7966C48.6837 30.6108 47.961 32.8343 47.8152 33.3346L48.0372 33.408C48.3132 32.5574 49.1849 29.889 49.1849 26ZM50.7573 26C50.7573 39.6847 39.6855 50.761 26 50.761C12.3126 50.761 1.222 39.6847 1.222 26C1.222 12.3135 12.3126 1.22296 26 1.22296C39.6855 1.22296 50.7573 12.3878 50.7573 26ZM52 26C52 11.6661 40.3335 0 26 0C11.6641 0 0 11.6661 0 26C0 40.389 11.6641 52 26 52C40.3335 52 52 40.389 52 26Z" fill="#0870D8"/>
</svg>
